<svg width="49" height="41" viewBox="0 0 49 41" fill="none" xmlns="http://www.w3.org/2000/svg">
<path d="M14.2385 1.48472e-06H46.7521C47.3483 1.48472e-06 47.92 0.236833 48.3416 0.658395C48.7632 1.07996 49 1.65172 49 2.2479V38.2142C49 38.8104 48.7632 39.3822 48.3416 39.8038C47.92 40.2253 47.3483 40.4621 46.7521 40.4621H14.2385C13.8681 40.4626 13.5034 40.3715 13.1767 40.197C12.8501 40.0224 12.5716 39.7699 12.366 39.4618L0.377983 21.4787C0.131526 21.1093 0 20.6751 0 20.2311C0 19.787 0.131526 19.3529 0.377983 18.9835L12.366 1.00032C12.5716 0.692225 12.8501 0.439698 13.1767 0.265184C13.5034 0.0906695 13.8681 -0.000424146 14.2385 1.48472e-06ZM15.4411 4.4958L4.95021 20.2311L15.4411 35.9664H44.5065V4.4958H15.4411ZM28.7712 17.0525L35.1282 10.6932L38.3068 13.874L31.9497 20.2311L38.3068 26.5881L35.1282 29.7689L28.7689 23.4096L22.4119 29.7689L19.2333 26.5881L25.5904 20.2311L19.2333 13.874L22.4119 10.6932L28.7712 17.0525Z" fill="#001F3F"/>
</svg>
