<?xml version="1.0" encoding="UTF-8"?>
<!DOCTYPE svg PUBLIC "-//W3C//DTD SVG 1.1//EN" "http://www.w3.org/Graphics/SVG/1.1/DTD/svg11.dtd">
<svg xmlns="http://www.w3.org/2000/svg" version="1.1" width="32px" height="32px" style="shape-rendering:geometricPrecision; text-rendering:geometricPrecision; image-rendering:optimizeQuality; fill-rule:evenodd; clip-rule:evenodd" xmlns:xlink="http://www.w3.org/1999/xlink">
<g><path style="opacity:1" fill="#fdfefe" d="M -0.5,-0.5 C 10.1667,-0.5 20.8333,-0.5 31.5,-0.5C 31.5,10.1667 31.5,20.8333 31.5,31.5C 20.8333,31.5 10.1667,31.5 -0.5,31.5C -0.5,20.8333 -0.5,10.1667 -0.5,-0.5 Z"/></g>
<g><path style="opacity:1" fill="#ffcb43" d="M 18.5,7.5 C 17.1667,7.5 15.8333,7.5 14.5,7.5C 13.7564,4.05044 15.0897,2.38377 18.5,2.5C 18.5,4.16667 18.5,5.83333 18.5,7.5 Z"/></g>
<g><path style="opacity:1" fill="#5ea2da" d="M 14.5,7.5 C 15.8333,7.5 17.1667,7.5 18.5,7.5C 18.5,7.83333 18.5,8.16667 18.5,8.5C 17.5,8.5 16.5,8.5 15.5,8.5C 15.8182,13.0323 15.4849,17.3656 14.5,21.5C 14.5,16.8333 14.5,12.1667 14.5,7.5 Z"/></g>
<g><path style="opacity:1" fill="#1a78cc" d="M 18.5,8.5 C 18.6659,13.5111 18.4993,18.5111 18,23.5C 14.9402,26.3168 12.1069,26.1501 9.5,23C 10.7405,20.5274 12.4071,20.0274 14.5,21.5C 15.4849,17.3656 15.8182,13.0323 15.5,8.5C 16.5,8.5 17.5,8.5 18.5,8.5 Z"/></g>
</svg>
