<svg width="75" height="73" viewBox="0 0 75 73" fill="none" xmlns="http://www.w3.org/2000/svg">
<path fill-rule="evenodd" clip-rule="evenodd" d="M15.9092 26.7713C18.3202 26.7713 20.6326 25.6431 22.3374 23.6349C24.0423 21.6267 25.0001 18.9029 25.0001 16.0629C25.0001 13.2228 24.0423 10.499 22.3374 8.49081C20.6326 6.48258 18.3202 5.35437 15.9092 5.35437C13.4981 5.35437 11.1858 6.48258 9.48095 8.49081C7.77607 10.499 6.81828 13.2228 6.81828 16.0629C6.81828 18.9029 7.77607 21.6267 9.48095 23.6349C11.1858 25.6431 13.4981 26.7713 15.9092 26.7713ZM15.9092 32.1256C17.6999 32.1256 19.4732 31.7101 21.1276 30.9029C22.782 30.0957 24.2853 28.9125 25.5516 27.4209C26.8178 25.9294 27.8223 24.1586 28.5075 22.2098C29.1928 20.261 29.5456 18.1722 29.5456 16.0629C29.5456 13.9535 29.1928 11.8647 28.5075 9.91591C27.8223 7.96709 26.8178 6.19635 25.5516 4.70479C24.2853 3.21323 22.782 2.03005 21.1276 1.22283C19.4732 0.415598 17.6999 0.000122039 15.9092 0.00012207C12.2926 0.000122134 8.82414 1.69244 6.26683 4.70479C3.70951 7.71713 2.27283 11.8028 2.27283 16.0629C2.27283 20.323 3.70951 24.4086 6.26683 27.4209C8.82414 30.4333 12.2926 32.1256 15.9092 32.1256Z" fill="#001F3F"/>
<path fill-rule="evenodd" clip-rule="evenodd" d="M10.7 26.216C10.9117 26.4647 11.0796 26.7601 11.1941 27.0854C11.3087 27.4106 11.3677 27.7593 11.3677 28.1114C11.3677 28.4636 11.3087 28.8122 11.1941 29.1375C11.0796 29.4627 10.9117 29.7581 10.7 30.0068L9.16364 31.8112C6.20698 35.2949 4.54584 40.0191 4.54545 44.9452V54.8826C4.54545 55.5927 4.30601 56.2736 3.87979 56.7757C3.45357 57.2777 2.87549 57.5598 2.27273 57.5598C1.66996 57.5598 1.09189 57.2777 0.665666 56.7757C0.239447 56.2736 0 55.5927 0 54.8826V44.9452C0.00064436 38.5992 2.14084 32.5133 5.95 28.0258L7.48182 26.216C7.69293 25.9667 7.94373 25.7689 8.21985 25.6339C8.49596 25.499 8.79197 25.4295 9.09091 25.4295C9.38985 25.4295 9.68586 25.499 9.96197 25.6339C10.2381 25.7689 10.4889 25.9667 10.7 26.216ZM64.3 24.6097C64.0883 24.8584 63.9204 25.1539 63.8059 25.4791C63.6913 25.8043 63.6323 26.153 63.6323 26.5051C63.6323 26.8573 63.6913 27.206 63.8059 27.5312C63.9204 27.8564 64.0883 28.1519 64.3 28.4006L65.8364 30.2049C67.3006 31.9297 68.462 33.9773 69.2544 36.2309C70.0468 38.4844 70.4546 40.8997 70.4545 43.3389V54.8826C70.4545 55.5927 70.694 56.2736 71.1202 56.7757C71.5464 57.2777 72.1245 57.5598 72.7273 57.5598C73.33 57.5598 73.9081 57.2777 74.3343 56.7757C74.7606 56.2736 75 55.5927 75 54.8826V43.3389C74.9994 36.9929 72.8592 30.9071 69.05 26.4195L67.5182 24.6097C67.3071 24.3604 67.0563 24.1626 66.7802 24.0277C66.504 23.8927 66.208 23.8232 65.9091 23.8232C65.6101 23.8232 65.3141 23.8927 65.038 24.0277C64.7619 24.1626 64.5111 24.3604 64.3 24.6097Z" fill="#001F3F"/>
<path fill-rule="evenodd" clip-rule="evenodd" d="M56.8182 26.7713C54.4072 26.7713 52.0949 25.6431 50.39 23.6349C48.6851 21.6267 47.7273 18.9029 47.7273 16.0629C47.7273 13.2228 48.6851 10.499 50.39 8.49081C52.0949 6.48258 54.4072 5.35437 56.8182 5.35437C59.2293 5.35437 61.5416 6.48258 63.2465 8.49081C64.9513 10.499 65.9091 13.2228 65.9091 16.0629C65.9091 18.9029 64.9513 21.6267 63.2465 23.6349C61.5416 25.6431 59.2293 26.7713 56.8182 26.7713ZM56.8182 32.1256C55.0275 32.1256 53.2543 31.7101 51.5998 30.9029C49.9454 30.0957 48.4421 28.9125 47.1759 27.4209C45.9096 25.9294 44.9052 24.1586 44.2199 22.2098C43.5346 20.261 43.1819 18.1722 43.1819 16.0629C43.1819 13.9535 43.5346 11.8647 44.2199 9.91591C44.9052 7.96709 45.9096 6.19635 47.1759 4.70479C48.4421 3.21323 49.9454 2.03005 51.5998 1.22283C53.2543 0.415598 55.0275 0.000122039 56.8182 0.00012207C60.4348 0.000122134 63.9033 1.69244 66.4606 4.70479C69.0179 7.71713 70.4546 11.8028 70.4546 16.0629C70.4546 20.323 69.0179 24.4086 66.4606 27.4209C63.9033 30.4333 60.4348 32.1256 56.8182 32.1256ZM36.3637 49.5269C33.3499 49.5269 30.4595 50.9371 28.3284 53.4474C26.1973 55.9577 25 59.3624 25 62.9125V69.873C25 70.583 24.7606 71.264 24.3344 71.766C23.9082 72.2681 23.3301 72.5501 22.7273 72.5501C22.1246 72.5501 21.5465 72.2681 21.1203 71.766C20.694 71.264 20.4546 70.583 20.4546 69.873V62.9125C20.4546 57.9424 22.1307 53.1758 25.1143 49.6614C28.0978 46.147 32.1443 44.1726 36.3637 44.1726C40.583 44.1726 44.6296 46.147 47.6131 49.6614C50.5966 53.1758 52.2728 57.9424 52.2728 62.9125V69.873C52.2728 70.583 52.0333 71.264 51.6071 71.766C51.1809 72.2681 50.6028 72.5501 50 72.5501C49.3973 72.5501 48.8192 72.2681 48.393 71.766C47.9668 71.264 47.7273 70.583 47.7273 69.873V62.9125C47.7273 61.1547 47.4334 59.4141 46.8623 57.79C46.2912 56.166 45.4542 54.6904 44.399 53.4474C43.3438 52.2045 42.0911 51.2185 40.7124 50.5458C39.3337 49.8731 37.856 49.5269 36.3637 49.5269Z" fill="#001F3F"/>
<path fill-rule="evenodd" clip-rule="evenodd" d="M36.3634 41.4966C38.7745 41.4966 41.0868 40.3683 42.7917 38.3601C44.4965 36.3519 45.4543 33.6281 45.4543 30.7881C45.4543 27.948 44.4965 25.2243 42.7917 23.216C41.0868 21.2078 38.7745 20.0796 36.3634 20.0796C33.9524 20.0796 31.64 21.2078 29.9352 23.216C28.2303 25.2243 27.2725 27.948 27.2725 30.7881C27.2725 33.6281 28.2303 36.3519 29.9352 38.3601C31.64 40.3683 33.9524 41.4966 36.3634 41.4966ZM36.3634 46.8508C39.98 46.8508 43.4485 45.1585 46.0058 42.1461C48.5631 39.1338 49.9998 35.0482 49.9998 30.7881C49.9998 26.528 48.5631 22.4424 46.0058 19.43C43.4485 16.4177 39.98 14.7253 36.3634 14.7253C32.7468 14.7253 29.2784 16.4177 26.721 19.43C24.1637 22.4424 22.7271 26.528 22.7271 30.7881C22.7271 35.0482 24.1637 39.1338 26.721 42.1461C29.2784 45.1585 32.7468 46.8508 36.3634 46.8508Z" fill="#001F3F"/>
</svg>
