<svg width="58" height="73" viewBox="0 0 58 73" fill="none" xmlns="http://www.w3.org/2000/svg">
<path d="M23.4432 47.1028L14.1418 37.8015L10.4886 41.4547L23.4432 54.4092L46.7614 31.091L43.1082 27.4119L23.4432 47.1028Z" fill="#001F3F"/>
<path d="M51.9431 7.77273H44.1703V5.18182C44.1703 3.80751 43.6244 2.4895 42.6526 1.51772C41.6808 0.54594 40.3628 0 38.9885 0H18.2612C16.8869 0 15.5689 0.54594 14.5971 1.51772C13.6254 2.4895 13.0794 3.80751 13.0794 5.18182V7.77273H5.3067C3.93239 7.77273 2.61438 8.31867 1.6426 9.29045C0.670818 10.2622 0.124878 11.5802 0.124878 12.9545V67.3636C0.124878 68.7379 0.670818 70.056 1.6426 71.0277C2.61438 71.9995 3.93239 72.5455 5.3067 72.5455H51.9431C53.3174 72.5455 54.6354 71.9995 55.6072 71.0277C56.5789 70.056 57.1249 68.7379 57.1249 67.3636V12.9545C57.1249 11.5802 56.5789 10.2622 55.6072 9.29045C54.6354 8.31867 53.3174 7.77273 51.9431 7.77273ZM18.2612 5.18182H38.9885V15.5455H18.2612V5.18182ZM51.9431 67.3636H5.3067V12.9545H13.0794V20.7273H44.1703V12.9545H51.9431V67.3636Z" fill="#001F3F"/>
</svg>
