<svg width="79" height="79" viewBox="0 0 79 79" fill="none" xmlns="http://www.w3.org/2000/svg">
<path d="M75.7998 75.55L51.6164 51.3667M3.24976 31.2139C3.24976 34.919 3.97953 38.5878 5.39741 42.0109C6.81529 45.4339 8.89351 48.5442 11.5134 51.1641C14.1333 53.784 17.2436 55.8622 20.6667 57.2801C24.0897 58.698 27.7585 59.4278 31.4636 59.4278C35.1687 59.4278 38.8376 58.698 42.2606 57.2801C45.6837 55.8622 48.794 53.784 51.4139 51.1641C54.0338 48.5442 56.112 45.4339 57.5299 42.0109C58.9478 38.5878 59.6775 34.919 59.6775 31.2139C59.6775 27.5088 58.9478 23.84 57.5299 20.4169C56.112 16.9938 54.0338 13.8836 51.4139 11.2637C48.794 8.64375 45.6837 6.56553 42.2606 5.14765C38.8376 3.72977 35.1687 3 31.4636 3C27.7585 3 24.0897 3.72977 20.6667 5.14765C17.2436 6.56553 14.1333 8.64375 11.5134 11.2637C8.89351 13.8836 6.81529 16.9938 5.39741 20.4169C3.97953 23.84 3.24976 27.5088 3.24976 31.2139Z" stroke="#001F3F" stroke-width="6" stroke-linecap="round" stroke-linejoin="round"/>
</svg>
